<?xml version="1.0" encoding="UTF-8"?>
<svg width="250px" height="200px" viewBox="0 0 250 200" version="1.1" xmlns="http://www.w3.org/2000/svg" xmlns:xlink="http://www.w3.org/1999/xlink">
    <!-- Generator: Sketch 55.2 (78181) - https://sketchapp.com -->
    <title>new blank form</title>
    <desc>Created with Sketch.</desc>
    <g id="new-blank-form" stroke="none" stroke-width="1" fill="none" fill-rule="evenodd">
        <g id="编组-4">
            <g id="编组">
                <rect id="矩形" fill="#FFFFFF" x="0" y="0" width="250" height="200"></rect>
                <path d="M30,24 L30,198 L2,198 L2,24 L2,2 L248,2 L248,24 L30,24 Z" id="形状结合" fill="#F2F2F2"></path>
                <path d="M194,24 L194,2 L196,2 L196,24 L248,24 L248,26 L196,26 L196,49 L248,49 L248,51 L196,51 L196,74 L248,74 L248,76 L196,76 L196,99 L248,99 L248,101 L196,101 L196,124 L248,124 L248,126 L196,126 L196,149 L248,149 L248,151 L196,151 L196,174 L248,174 L248,176 L196,176 L196,198 L194,198 L194,176 L114,176 L114,198 L112,198 L112,176 L32,176 L32,198 L30,198 L30,176 L2,176 L2,174 L30,174 L30,151 L2,151 L2,149 L30,149 L30,126 L2,126 L2,124 L30,124 L30,101 L2,101 L2,99 L30,99 L30,76 L2,76 L2,74 L30,74 L30,51 L2,51 L2,49 L30,49 L30,26 L2,26 L2,24 L30,24 L30,2 L32,2 L32,24 L112,24 L112,2 L114,2 L114,24 L194,24 Z M194,26 L114,26 L114,49 L194,49 L194,26 Z M194,51 L114,51 L114,74 L194,74 L194,51 Z M194,76 L114,76 L114,99 L194,99 L194,76 Z M194,101 L114,101 L114,124 L194,124 L194,101 Z M194,126 L114,126 L114,149 L194,149 L194,126 Z M194,151 L114,151 L114,174 L194,174 L194,151 Z M112,174 L112,151 L32,151 L32,174 L112,174 Z M112,149 L112,126 L32,126 L32,149 L112,149 Z M112,124 L112,101 L32,101 L32,124 L112,124 Z M112,99 L112,76 L32,76 L32,99 L112,99 Z M112,74 L112,51 L32,51 L32,74 L112,74 Z M112,49 L112,26 L32,26 L32,49 L112,49 Z" id="形状结合" fill="#D5D5D5"></path>
                <path d="M0,0 L250,0 L250,200 L0,200 L0,0 Z M2,2 L2,198 L248,198 L248,2 L2,2 Z" id="矩形" fill="#666666" fill-rule="nonzero"></path>
                <polygon id="三角形" fill="#D5D5D5" points="27 11 27 21 17 21"></polygon>
                <path d="M114,47 L116,47 L116,53 L110,53 L110,51 L30,51 L30,24 L114,24 L114,47 Z M112,47 L112,26 L32,26 L32,49 L110,49 L110,47 L112,47 Z" id="形状结合" fill="#666666" fill-rule="nonzero"></path>
            </g>
            <g id="编组-2" transform="translate(11.294000, 31.640000)" fill="#4A4A4A" fill-rule="nonzero">
                <path d="M0.854,10.36 L0.854,8.694 L3.08,8.694 L3.08,2.142 L1.204,2.142 L1.204,0.868 C2.24,0.672 2.954,0.406 3.612,-6.25277607e-13 L5.138,-6.25277607e-13 L5.138,8.694 L7.084,8.694 L7.084,10.36 L0.854,10.36 Z" id="1"></path>
                <path d="M0.308,35.36 L0.308,34.17 C3.122,31.65 4.788,29.704 4.788,28.108 C4.788,27.058 4.214,26.428 3.234,26.428 C2.478,26.428 1.848,26.918 1.33,27.492 L0.21,26.372 C1.162,25.364 2.086,24.804 3.5,24.804 C5.46,24.804 6.762,26.064 6.762,27.996 C6.762,29.872 5.208,31.888 3.318,33.736 C3.836,33.68 4.522,33.624 4.998,33.624 L7.252,33.624 L7.252,35.36 L0.308,35.36 Z" id="2"></path>
                <path d="M3.542,60.556 C1.904,60.556 0.798,59.94 0.07,59.114 L1.036,57.812 C1.652,58.414 2.408,58.876 3.346,58.876 C4.396,58.876 5.11,58.358 5.11,57.434 C5.11,56.412 4.508,55.782 2.254,55.782 L2.254,54.298 C4.158,54.298 4.774,53.64 4.774,52.716 C4.774,51.904 4.27,51.428 3.388,51.414 C2.646,51.428 2.044,51.778 1.428,52.338 L0.378,51.078 C1.274,50.294 2.268,49.804 3.486,49.804 C5.488,49.804 6.846,50.784 6.846,52.562 C6.846,53.682 6.216,54.494 5.11,54.928 L5.11,54.998 C6.286,55.32 7.182,56.188 7.182,57.546 C7.182,59.45 5.516,60.556 3.542,60.556 Z" id="3"></path>
                <path d="M2.002,81.104 L4.41,81.104 L4.41,78.99 C4.41,78.388 4.466,77.45 4.494,76.848 L4.438,76.848 C4.186,77.394 3.906,77.968 3.612,78.528 L2.002,81.104 Z M7.56,81.104 L7.56,82.672 L6.328,82.672 L6.328,85.36 L4.41,85.36 L4.41,82.672 L-2.66453526e-14,82.672 L-2.66453526e-14,81.272 L3.864,75 L6.328,75 L6.328,81.104 L7.56,81.104 Z" id="4"></path>
                <path d="M3.57,110.556 C1.932,110.556 0.84,109.912 0.07,109.142 L1.022,107.826 C1.61,108.4 2.338,108.876 3.304,108.876 C4.382,108.876 5.138,108.19 5.138,106.972 C5.138,105.768 4.438,105.096 3.388,105.096 C2.772,105.096 2.436,105.25 1.834,105.642 L0.896,105.026 L1.176,100 L6.72,100 L6.72,101.722 L2.954,101.722 L2.758,103.92 C3.164,103.724 3.528,103.626 4.004,103.626 C5.74,103.626 7.196,104.662 7.196,106.916 C7.196,109.226 5.488,110.556 3.57,110.556 Z" id="5"></path>
                <path d="M4.088,134.002 C4.858,134.002 5.488,133.358 5.488,132.098 C5.488,130.866 4.914,130.292 4.018,130.292 C3.458,130.292 2.842,130.586 2.324,131.384 C2.52,133.274 3.22,134.002 4.088,134.002 Z M7.224,125.98 L6.132,127.212 C5.768,126.792 5.138,126.456 4.536,126.456 C3.346,126.456 2.366,127.352 2.282,129.942 C2.842,129.256 3.738,128.836 4.41,128.836 C6.146,128.836 7.378,129.872 7.378,132.098 C7.378,134.226 5.894,135.556 4.13,135.556 C2.156,135.556 0.406,133.974 0.406,130.32 C0.406,126.456 2.324,124.804 4.41,124.804 C5.67,124.804 6.594,125.336 7.224,125.98 Z" id="6"></path>
                <path d="M2.31,160.36 C2.492,156.762 3.094,154.466 5.068,151.722 L0.406,151.722 L0.406,150 L7.294,150 L7.294,151.246 C4.886,154.186 4.564,156.3 4.396,160.36 L2.31,160.36 Z" id="7"></path>
            </g>
            <g id="编组-3" transform="translate(64.944000, 7.444000)" fill="#4A4A4A" fill-rule="nonzero">
                <path d="M3.276,6.286 L5.74,6.286 L5.432,5.152 C5.11,4.074 4.83,2.884 4.522,1.764 L4.466,1.764 C4.2,2.898 3.892,4.074 3.584,5.152 L3.276,6.286 Z M6.916,10.556 L6.188,7.896 L2.828,7.896 L2.1,10.556 L1.20792265e-13,10.556 L3.318,0.196 L5.754,0.196 L9.086,10.556 L6.916,10.556 Z" id="A"></path>
                <path d="M86.33,10.556 L86.33,0.196 L89.76,0.196 C91.888,0.196 93.512,0.812 93.512,2.744 C93.512,3.696 92.98,4.676 92.098,4.984 L92.098,5.054 C93.218,5.32 94.044,6.104 94.044,7.504 C94.044,9.59 92.308,10.556 90.026,10.556 L86.33,10.556 Z M88.402,4.41 L89.606,4.41 C90.922,4.41 91.496,3.878 91.496,3.052 C91.496,2.142 90.88,1.778 89.634,1.778 L88.402,1.778 L88.402,4.41 Z M88.402,8.96 L89.844,8.96 C91.258,8.96 92.028,8.456 92.028,7.378 C92.028,6.37 91.272,5.95 89.844,5.95 L88.402,5.95 L88.402,8.96 Z" id="B"></path>
                <path d="M158.558,10.752 C155.94,10.752 153.812,8.876 153.812,5.418 C153.812,2.002 156.01,-7.10542736e-13 158.628,-7.10542736e-13 C159.944,-7.10542736e-13 160.994,0.63 161.666,1.33 L160.574,2.646 C160.056,2.142 159.454,1.778 158.67,1.778 C157.102,1.778 155.926,3.122 155.926,5.348 C155.926,7.602 156.99,8.96 158.628,8.96 C159.51,8.96 160.21,8.54 160.77,7.938 L161.862,9.226 C161.008,10.22 159.902,10.752 158.558,10.752 Z" id="C"></path>
            </g>
        </g>
    </g>
</svg>